<?xml version="1.0" encoding="UTF-8" standalone="no"?>
<svg
   xmlns:dc="http://purl.org/dc/elements/1.1/"
   xmlns:cc="http://creativecommons.org/ns#"
   xmlns:rdf="http://www.w3.org/1999/02/22-rdf-syntax-ns#"
   xmlns:svg="http://www.w3.org/2000/svg"
   xmlns="http://www.w3.org/2000/svg"
   xmlns:sodipodi="http://sodipodi.sourceforge.net/DTD/sodipodi-0.dtd"
   xmlns:inkscape="http://www.inkscape.org/namespaces/inkscape"
   inkscape:export-ydpi="500"
   inkscape:export-xdpi="500"
   inkscape:export-filename="C:\Users\Dezerae\Documents\Current Analysis\210507_ANA019_LR_Single-molecule-machine-learning\streamlit\icon.png"
   inkscape:version="1.0 (4035a4fb49, 2020-05-01)"
   sodipodi:docname="icon.svg"
   xml:space="preserve"
   style="enable-background:new 0 0 512 512;"
   viewBox="0 0 512 512"
   y="0px"
   x="0px"
   id="Capa_1"
   version="1.1"><metadata
   id="metadata67"><rdf:RDF><cc:Work
       rdf:about=""><dc:format>image/svg+xml</dc:format><dc:type
         rdf:resource="http://purl.org/dc/dcmitype/StillImage" /><dc:title></dc:title></cc:Work></rdf:RDF></metadata><defs
   id="defs65" /><sodipodi:namedview
   inkscape:current-layer="Capa_1"
   inkscape:window-maximized="1"
   inkscape:window-y="-8"
   inkscape:window-x="-8"
   inkscape:cy="596.52491"
   inkscape:cx="1153.8442"
   inkscape:zoom="0.20996094"
   showgrid="false"
   id="namedview63"
   inkscape:window-height="666"
   inkscape:window-width="1280"
   inkscape:pageshadow="2"
   inkscape:pageopacity="0"
   guidetolerance="10"
   gridtolerance="10"
   objecttolerance="10"
   borderopacity="1"
   bordercolor="#666666"
   pagecolor="#ffffff" />
<g
   inkscape:export-ydpi="500"
   inkscape:export-xdpi="500"
   transform="matrix(1.5001931,0,0,1.5001931,-24.711541,0)"
   id="g30">
	<g
   id="g6">
		<circle
   id="circle2"
   r="206.59599"
   cy="206.59599"
   cx="256"
   style="fill:#d7eef4" />
		<rect
   id="rect4"
   height="177.40401"
   width="35.93"
   style="fill:#80b3ff"
   y="251.509"
   x="238.035" />
	</g>
	<path
   id="path8"
   d="m 225.28,225.1 h -0.09"
   style="fill:none;stroke:#000000;stroke-width:2;stroke-linecap:round;stroke-linejoin:round" />
	<g
   id="g28">
		<g
   id="g18">
			<path
   id="path10"
   d="m 167.559,114.077 16.115,-48.344 c 1.014,-3.049 0.325,-6.407 -1.808,-8.809 -2.133,-2.402 -5.386,-3.485 -8.533,-2.838 -3.147,0.646 -5.711,2.922 -6.725,5.971 l -15.342,45.999 -27.846,-6.961 c -3.143,-0.862 -6.506,0.046 -8.788,2.372 -2.282,2.326 -3.125,5.706 -2.203,8.832 0.922,3.126 3.464,5.507 6.644,6.222 l 33.729,8.435 43.96,39.981 c 3.671,3.339 9.354,3.069 12.692,-0.602 3.339,-3.671 3.069,-9.354 -0.602,-12.692 z"
   style="fill:#ff6600" />
			<path
   id="path12"
   d="m 189.754,235.897 -59.509,35.678 v -20.067 c 0,-4.961 -4.022,-8.982 -8.982,-8.982 h -35.93 c -4.961,0 -8.982,4.022 -8.982,8.982 0,4.961 4.022,8.982 8.982,8.982 h 26.947 v 26.947 c -0.003,3.238 1.738,6.227 4.556,7.823 2.818,1.596 6.277,1.551 9.052,-0.116 l 31.304,-18.773 v 46.996 h -17.965 c -4.961,0 -8.982,4.022 -8.982,8.982 0,4.961 4.022,8.982 8.982,8.982 h 26.947 c 4.961,0 8.982,-4.022 8.982,-8.982 V 265.6 l 23.839,-14.291 c 4.256,-2.552 5.638,-8.072 3.085,-12.328 -2.55,-4.255 -8.069,-5.636 -12.326,-3.084 z"
   style="fill:#672178" />
			<path
   id="path14"
   d="m 408.702,251.509 h -26.947 c -3.003,0 -5.807,1.499 -7.473,3.997 l -12.701,19.052 -42.703,-32.031 c -3.969,-2.977 -9.599,-2.172 -12.575,1.796 -2.976,3.968 -2.172,9.599 1.796,12.575 l 19.761,14.812 v 51.658 c 10e-4,2.382 0.947,4.666 2.632,6.351 l 17.965,17.965 c 3.525,3.404 9.127,3.355 12.592,-0.109 3.465,-3.465 3.513,-9.067 0.109,-12.592 L 345.825,319.65 v -34.466 l 12.575,9.441 c 1.555,1.166 3.446,1.797 5.389,1.797 0.509,-0.002 1.016,-0.044 1.518,-0.126 2.433,-0.417 4.586,-1.818 5.955,-3.871 l 15.297,-22.95 h 22.142 c 4.961,0 8.982,-4.022 8.982,-8.982 0.001,-4.963 -4.02,-8.984 -8.981,-8.984 z"
   style="fill:#aa0044" />
			<path
   id="path16"
   d="m 313.191,162.106 14.668,-14.668 29.579,29.579 c 3.508,3.507 9.194,3.507 12.701,0 l 44.912,-44.912 c 3.404,-3.525 3.355,-9.127 -0.109,-12.592 -3.465,-3.465 -9.067,-3.514 -12.592,-0.109 l -38.562,38.562 -23.229,-23.229 11.614,-11.614 c 1.685,-1.684 2.631,-3.968 2.632,-6.351 v -35.93 c 0,-4.961 -4.022,-8.982 -8.982,-8.982 H 318.876 V 44.912 c 0,-4.961 -4.022,-8.982 -8.982,-8.982 -4.96,0 -8.982,4.022 -8.982,8.982 v 35.93 c 0,4.961 4.022,8.982 8.982,8.982 h 26.947 v 23.229 l -36.352,36.352 c -2.335,2.255 -3.272,5.595 -2.449,8.736 0.822,3.141 3.275,5.593 6.415,6.415 3.141,0.822 6.481,-0.115 8.736,-2.45 z"
   style="fill:#008033" />
		</g>
		<circle
   id="circle20"
   r="71.860001"
   cy="206.59599"
   cx="256"
   style="fill:#0066ff" />
		
		<path
   id="path24"
   d="M 148.211,404.211 H 363.79 c 9.922,0 17.965,8.043 17.965,17.965 v 62.877 H 130.246 v -62.877 c 0,-9.922 8.043,-17.965 17.965,-17.965 z"
   style="fill:#0044aa" />
		<path
   id="path26"
   d="m 121.263,458.105 h 269.474 c 9.922,0 17.965,8.043 17.965,17.965 V 512 H 103.298 v -35.93 c 0,-9.922 8.043,-17.965 17.965,-17.965 z"
   style="fill:#002255" />
	</g>
</g>
<g
   id="g32">
</g>
<g
   id="g34">
</g>
<g
   id="g36">
</g>
<g
   id="g38">
</g>
<g
   id="g40">
</g>
<g
   id="g42">
</g>
<g
   id="g44">
</g>
<g
   id="g46">
</g>
<g
   id="g48">
</g>
<g
   id="g50">
</g>
<g
   id="g52">
</g>
<g
   id="g54">
</g>
<g
   id="g56">
</g>
<g
   id="g58">
</g>
<g
   id="g60">
</g>
<text
   inkscape:export-ydpi="500"
   inkscape:export-xdpi="500"
   id="text906"
   y="335.29037"
   x="357.30991"
   style="font-style:normal;font-variant:normal;font-weight:bold;font-stretch:normal;font-size:82.0419px;line-height:1.25;font-family:'Lobster Two';-inkscape-font-specification:'Lobster Two, Bold';font-variant-ligatures:normal;font-variant-caps:normal;font-variant-numeric:normal;font-variant-east-asian:normal;text-align:center;letter-spacing:0px;word-spacing:0px;text-anchor:middle;fill:#002255;fill-opacity:1;stroke-width:5.12763"
   xml:space="preserve"><tspan
     style="font-style:normal;font-variant:normal;font-weight:bold;font-stretch:normal;font-size:82.0419px;font-family:'Lobster Two';-inkscape-font-specification:'Lobster Two, Bold';font-variant-ligatures:normal;font-variant-caps:normal;font-variant-numeric:normal;font-variant-east-asian:normal;fill:#002255;fill-opacity:1;stroke-width:5.12763"
     y="335.29037"
     x="357.30991"
     id="tspan904"
     sodipodi:role="line">TSLA</tspan></text><text
   inkscape:export-ydpi="500"
   inkscape:export-xdpi="500"
   id="text910"
   y="131.34425"
   x="892.46741"
   style="font-style:normal;font-variant:normal;font-weight:normal;font-stretch:normal;font-size:66.6667px;line-height:1.25;font-family:'Bebas Neue';-inkscape-font-specification:'Bebas Neue, Normal';font-variant-ligatures:normal;font-variant-caps:normal;font-variant-numeric:normal;font-variant-east-asian:normal;text-align:center;letter-spacing:0px;word-spacing:0px;text-anchor:middle;"
   xml:space="preserve"><tspan
     y="131.34425"
     x="892.46741"
     id="tspan908"
     sodipodi:role="line">Welcome to the</tspan><tspan
     id="tspan912"
     y="214.6776"
     x="892.46741"
     sodipodi:role="line" /></text><text
   inkscape:export-ydpi="500"
   inkscape:export-xdpi="500"
   id="text916"
   y="374.77448"
   x="721.59503"
   style="font-style:normal;font-variant:normal;font-weight:normal;font-stretch:normal;font-size:262.259px;line-height:1.25;font-family:'Lobster Two';-inkscape-font-specification:'Lobster Two, Normal';font-variant-ligatures:normal;font-variant-caps:normal;font-variant-numeric:normal;font-variant-east-asian:normal;text-align:start;letter-spacing:0px;word-spacing:0px;text-anchor:start;stroke-width:3.93388;"
   xml:space="preserve"><tspan
     style="stroke-width:3.93388;-inkscape-font-specification:'Lobster Two, Normal';font-family:'Lobster Two';font-weight:normal;font-style:normal;font-stretch:normal;font-variant:normal;font-size:262.25900269px;font-variant-ligatures:normal;font-variant-caps:normal;font-variant-numeric:normal;font-variant-east-asian:normal;"
     y="374.77448"
     x="721.59503"
     id="tspan914"
     sodipodi:role="line">Time Series</tspan><tspan
     style="stroke-width:3.93388;-inkscape-font-specification:'Lobster Two, Normal';font-family:'Lobster Two';font-weight:normal;font-style:normal;font-stretch:normal;font-variant:normal;font-size:262.25900269px;font-variant-ligatures:normal;font-variant-caps:normal;font-variant-numeric:normal;font-variant-east-asian:normal;"
     id="tspan918"
     y="702.59821"
     x="721.59503"
     sodipodi:role="line">Labelling App</tspan></text></svg>
