<?xml version="1.0" encoding="iso-8859-1"?>
<!-- Generator: Adobe Illustrator 19.0.0, SVG Export Plug-In . SVG Version: 6.00 Build 0)  -->
<svg version="1.1" id="Capa_1" xmlns="http://www.w3.org/2000/svg" xmlns:xlink="http://www.w3.org/1999/xlink" x="0px" y="0px"
	 viewBox="0 0 512 512" style="enable-background:new 0 0 512 512;" xml:space="preserve">
<g>
	<g>
		<circle style="fill:#955BA5;" cx="256" cy="206.596" r="206.596"/>
		<rect x="238.035" y="251.509" style="fill:#894B9D;" width="35.93" height="177.404"/>
	</g>
	<path style="fill:none;stroke:#000000;stroke-width:2;stroke-linecap:round;stroke-linejoin:round;" d="M225.28,225.1h-0.09"/>
	<g>
		<g>
			<path style="fill:#FF5364;" d="M167.559,114.077l16.115-48.344c1.014-3.049,0.325-6.407-1.808-8.809s-5.386-3.485-8.533-2.838
				c-3.147,0.646-5.711,2.922-6.725,5.971l-15.342,45.999l-27.846-6.961c-3.143-0.862-6.506,0.046-8.788,2.372
				c-2.282,2.326-3.125,5.706-2.203,8.832c0.922,3.126,3.464,5.507,6.644,6.222l33.729,8.435l43.96,39.981
				c3.671,3.339,9.354,3.069,12.692-0.602c3.339-3.671,3.069-9.354-0.602-12.692L167.559,114.077z"/>
			<path style="fill:#FF5364;" d="M189.754,235.897l-59.509,35.678v-20.067c0-4.961-4.022-8.982-8.982-8.982h-35.93
				c-4.961,0-8.982,4.022-8.982,8.982c0,4.961,4.022,8.982,8.982,8.982h26.947v26.947c-0.003,3.238,1.738,6.227,4.556,7.823
				c2.818,1.596,6.277,1.551,9.052-0.116l31.304-18.773v46.996h-17.965c-4.961,0-8.982,4.022-8.982,8.982
				c0,4.961,4.022,8.982,8.982,8.982h26.947c4.961,0,8.982-4.022,8.982-8.982v-66.749l23.839-14.291
				c4.256-2.552,5.638-8.072,3.085-12.328C199.53,234.726,194.011,233.345,189.754,235.897z"/>
			<path style="fill:#FF5364;" d="M408.702,251.509h-26.947c-3.003,0-5.807,1.499-7.473,3.997l-12.701,19.052l-42.703-32.031
				c-3.969-2.977-9.599-2.172-12.575,1.796s-2.172,9.599,1.796,12.575l19.761,14.812v51.658c0.001,2.382,0.947,4.666,2.632,6.351
				l17.965,17.965c3.525,3.404,9.127,3.355,12.592-0.109c3.465-3.465,3.513-9.067,0.109-12.592l-15.333-15.333v-34.466l12.575,9.441
				c1.555,1.166,3.446,1.797,5.389,1.797c0.509-0.002,1.016-0.044,1.518-0.126c2.433-0.417,4.586-1.818,5.955-3.871l15.297-22.95
				h22.142c4.961,0,8.982-4.022,8.982-8.982C417.684,255.53,413.663,251.509,408.702,251.509z"/>
			<path style="fill:#FF5364;" d="M313.191,162.106l14.668-14.668l29.579,29.579c3.508,3.507,9.194,3.507,12.701,0l44.912-44.912
				c3.404-3.525,3.355-9.127-0.109-12.592c-3.465-3.465-9.067-3.514-12.592-0.109l-38.562,38.562l-23.229-23.229l11.614-11.614
				c1.685-1.684,2.631-3.968,2.632-6.351v-35.93c0-4.961-4.022-8.982-8.982-8.982h-26.947V44.912c0-4.961-4.022-8.982-8.982-8.982
				s-8.982,4.022-8.982,8.982v35.93c0,4.961,4.022,8.982,8.982,8.982h26.947v23.229l-36.352,36.352
				c-2.335,2.255-3.272,5.595-2.449,8.736c0.822,3.141,3.275,5.593,6.415,6.415C307.596,165.378,310.936,164.441,313.191,162.106z"
				/>
		</g>
		<circle style="fill:#FB7B76;" cx="256" cy="206.596" r="71.86"/>
		<path style="fill:#FDB0AD;" d="M256,251.509c-24.804,0-44.912-20.108-44.912-44.912s20.108-44.912,44.912-44.912
			c4.961,0,8.982,4.022,8.982,8.982c0,4.961-4.022,8.982-8.982,8.982c-10.892,0.01-20.707,6.575-24.874,16.638
			c-4.167,10.063-1.866,21.645,5.831,29.352c10.649,10.193,27.436,10.193,38.086,0c5.075-5.035,7.922-11.894,7.905-19.043
			c0-4.961,4.022-8.982,8.982-8.982c4.961,0,8.982,4.022,8.982,8.982C300.888,231.391,280.794,251.484,256,251.509z"/>
		<path style="fill:#DF4D60;" d="M148.211,404.211h215.579c9.922,0,17.965,8.043,17.965,17.965v62.877H130.246v-62.877
			C130.246,412.254,138.289,404.211,148.211,404.211z"/>
		<path style="fill:#802D40;" d="M121.263,458.105h269.474c9.922,0,17.965,8.043,17.965,17.965V512H103.298v-35.93
			C103.298,466.148,111.341,458.105,121.263,458.105z"/>
	</g>
</g>
<g>
</g>
<g>
</g>
<g>
</g>
<g>
</g>
<g>
</g>
<g>
</g>
<g>
</g>
<g>
</g>
<g>
</g>
<g>
</g>
<g>
</g>
<g>
</g>
<g>
</g>
<g>
</g>
<g>
</g>
</svg>
